<svg xmlns="http://www.w3.org/2000/svg" width="666.667" height="666.667" viewBox="0 0 666.66669 666.66669">
  <path
    d="M421.672 480.565h-235.57c0 32.526 26.367 58.892 58.893 58.892h176.677c32.525 0 58.893-26.366 58.893-58.892V238.727a2.146 2.146 0 0 0-2.146-2.146h-54.602c-1.184 0-2.145.96-2.145 2.146zm0-353.356c32.525 0 58.893 26.367 58.893 58.892h-235.57V427.94a2.147 2.147 0 0 1-2.146 2.147h-54.602a2.147 2.147 0 0 1-2.146-2.147V186.101c0-32.525 26.368-58.892 58.894-58.892h176.677"
    fill="#fff" fill-rule="evenodd" />
</svg>
